HIERARCHY
ROOT Hips
{
    OFFSET 0.0 0.0 0.0
    CHANNELS 6 Xposition Yposition Zposition Zrotation Xrotation Yrotation
    JOINT LeftUpLeg
    {
        OFFSET 13.449277509082648 0.0 0.0
        CHANNELS 3 Zrotation Xrotation Yrotation
        JOINT LeftLeg
        {
            OFFSET 0.0 0.0 -55.79298083709959
            CHANNELS 3 Zrotation Xrotation Yrotation
            JOINT LeftFoot
            {
                OFFSET 0.0 0.0 -44.181066953013115
                CHANNELS 3 Zrotation Xrotation Yrotation
                JOINT LeftToeBase
                {
                    OFFSET 0.0 -11.533250606476305 0.0
                    CHANNELS 3 Zrotation Xrotation Yrotation
                    End Site
                    {
                        OFFSET 0 0 0
                    }
                }
            }
        }
    }
    JOINT RightUpLeg
    {
        OFFSET -13.449277509082648 0.0 0.0
        CHANNELS 3 Zrotation Xrotation Yrotation
        JOINT RightLeg
        {
            OFFSET 0.0 0.0 -55.79298083709959
            CHANNELS 3 Zrotation Xrotation Yrotation
            JOINT RightFoot
            {
                OFFSET 0.0 0.0 -44.181066953013115
                CHANNELS 3 Zrotation Xrotation Yrotation
                JOINT RightToeBase
                {
                    OFFSET 0.0 -11.533250606476305 0.0
                    CHANNELS 3 Zrotation Xrotation Yrotation
                    End Site
                    {
                        OFFSET 0 0 0
                    }
                }
            }
        }
    }
    JOINT Spine
    {
        OFFSET 0.0 0.0 11.7291720975437
        CHANNELS 3 Zrotation Xrotation Yrotation
        JOINT Spine1
        {
            OFFSET 0.0 0.0 11.689497159791538
            CHANNELS 3 Zrotation Xrotation Yrotation
            JOINT Spine2
            {
                OFFSET 0.0 0.0 11.689497159791538
                CHANNELS 3 Zrotation Xrotation Yrotation
                JOINT Spine3
                {
                    OFFSET 0.0 0.0 11.68949715979153
                    CHANNELS 3 Zrotation Xrotation Yrotation
                    JOINT Spine4
                    {
                        OFFSET 0.0 0.0 11.689497159791541
                        CHANNELS 3 Zrotation Xrotation Yrotation
                        JOINT RightShoulder
                        {
                            OFFSET -22.810108840285444 0.0 0.0
                            CHANNELS 3 Zrotation Xrotation Yrotation
                            JOINT RightArm
                            {
                                OFFSET -36.23480732729567 0.0 0.0
                                CHANNELS 3 Zrotation Xrotation Yrotation
                                JOINT RightForeArm
                                {
                                    OFFSET -34.01660181389912 0.0 0.0
                                    CHANNELS 3 Zrotation Xrotation Yrotation
                                    JOINT RightHand
                                    {
                                        OFFSET -11.380147708713583 0.0 0.0
                                        CHANNELS 3 Zrotation Xrotation Yrotation
                                        End Site
                                        {
                                            OFFSET 0 0 0
                                        }
                                    }
                                }
                            }
                        }
                        JOINT LeftShoulder
                        {
                            OFFSET 22.810108840285444 0.0 0.0
                            CHANNELS 3 Zrotation Xrotation Yrotation
                            JOINT LeftArm
                            {
                                OFFSET 36.23480732729567 0.0 0.0
                                CHANNELS 3 Zrotation Xrotation Yrotation
                                JOINT LeftForeArm
                                {
                                    OFFSET 34.01660181389912 0.0 0.0
                                    CHANNELS 3 Zrotation Xrotation Yrotation
                                    JOINT LeftHand
                                    {
                                        OFFSET 11.380147708713583 0.0 0.0
                                        CHANNELS 3 Zrotation Xrotation Yrotation
                                        End Site
                                        {
                                            OFFSET 0 0 0
                                        }
                                    }
                                }
                            }
                        }
                        JOINT Neck
                        {
                            OFFSET 0.0 0.0 11.689497155673786
                            CHANNELS 3 Zrotation Xrotation Yrotation
                            JOINT Head
                            {
                                OFFSET 0.0 0.0 25.756697081360144
                                CHANNELS 3 Zrotation Xrotation Yrotation
                                End Site
                                {
                                    OFFSET 0 0 0
                                }
                            }
                        }
                    }
                }
            }
        }
    }
}
MOTION
Frames: 5
Frame Time: 0.03333333333333333
57.2572603225708 -15.617497587203982 472.35363178253175 69.28167763598579 -84.19890372452475 66.56743356123911 -2.6454540848322945 1.3254232983811665 -26.41153881179672 -4.180218541146489 1.3934013285618974 22.532815404801074 41.68787929700274 0.0 60.163716378248445 -4.373262687012335e-15 3.975693351829396e-16 -7.951386703658792e-16 8.822461590145677 7.537109485232619 29.536917306378733 -17.87397253128909 -4.819140359627859 -57.472822272073806 -133.1929175969046 -9.54166404439055e-15 -47.46885547505525 -2.3854160110976376e-15 0.0 0.0 0.04492242977732698 -3.6677619561506267 0.04363694581918345 7.951386703658791e-16 -5.517382872562698e-33 -7.951386703658791e-16 7.951386703658791e-16 -5.517382872562698e-33 -7.951386703658791e-16 7.951386703658791e-16 -5.517382872562698e-33 -7.951386703658791e-16 7.951386703658791e-16 -5.517382872562698e-33 -7.951386703658791e-16 159.46230568304418 -2.508104526956787 -169.59399435495783 119.74554581680079 -5.851016461908112e-15 -2.5910194237884514e-15 6.3175334285506315e-15 1.6397911446212643 3.0904710553119224e-15 0.0 0.0 3.1805546814635168e-15 -163.20864063109525 2.666862979023886 164.73036764212696 -123.98833244576755 2.6135653294825913e-15 4.914194340782246e-15 -179.99999999999994 85.82361122952543 179.99999999999994 0.0 0.0 0.0 -2.6391045544399745 9.743755733593252e-15 -5.709060293247959e-16 0.0 0.0 3.975693351829397e-16
57.2572603225708 -15.617497587203982 472.35363178253175 69.28167763598579 -84.19890372452475 66.56743356123911 -2.6454540848322945 1.3254232983811665 -26.41153881179672 -4.180218541146489 1.3934013285618974 22.532815404801074 41.68787929700274 0.0 60.163716378248445 -4.373262687012335e-15 3.975693351829396e-16 -7.951386703658792e-16 8.822461590145677 7.537109485232619 29.536917306378733 -17.87397253128909 -4.819140359627859 -57.472822272073806 -133.1929175969046 -9.54166404439055e-15 -47.46885547505525 -2.3854160110976376e-15 0.0 0.0 0.04492242977732698 -3.6677619561506267 0.04363694581918345 7.951386703658791e-16 -5.517382872562698e-33 -7.951386703658791e-16 7.951386703658791e-16 -5.517382872562698e-33 -7.951386703658791e-16 7.951386703658791e-16 -5.517382872562698e-33 -7.951386703658791e-16 7.951386703658791e-16 -5.517382872562698e-33 -7.951386703658791e-16 159.46230568304418 -2.508104526956787 -169.59399435495783 119.74554581680079 -5.851016461908112e-15 -2.5910194237884514e-15 6.3175334285506315e-15 1.6397911446212643 3.0904710553119224e-15 0.0 0.0 3.1805546814635168e-15 -163.20864063109525 2.666862979023886 164.73036764212696 -123.98833244576755 2.6135653294825913e-15 4.914194340782246e-15 -179.99999999999994 85.82361122952543 179.99999999999994 0.0 0.0 0.0 -2.6391045544399745 9.743755733593252e-15 -5.709060293247959e-16 0.0 0.0 3.975693351829397e-16
57.2572603225708 -15.617497587203982 472.35363178253175 69.28167763598579 -84.19890372452475 66.56743356123911 -2.6454540848322945 1.3254232983811665 -26.41153881179672 -4.180218541146489 1.3934013285618974 22.532815404801074 41.68787929700274 0.0 60.163716378248445 -4.373262687012335e-15 3.975693351829396e-16 -7.951386703658792e-16 8.822461590145677 7.537109485232619 29.536917306378733 -17.87397253128909 -4.819140359627859 -57.472822272073806 -133.1929175969046 -9.54166404439055e-15 -47.46885547505525 -2.3854160110976376e-15 0.0 0.0 0.04492242977732698 -3.6677619561506267 0.04363694581918345 7.951386703658791e-16 -5.517382872562698e-33 -7.951386703658791e-16 7.951386703658791e-16 -5.517382872562698e-33 -7.951386703658791e-16 7.951386703658791e-16 -5.517382872562698e-33 -7.951386703658791e-16 7.951386703658791e-16 -5.517382872562698e-33 -7.951386703658791e-16 159.46230568304418 -2.508104526956787 -169.59399435495783 119.74554581680079 -5.851016461908112e-15 -2.5910194237884514e-15 6.3175334285506315e-15 1.6397911446212643 3.0904710553119224e-15 0.0 0.0 3.1805546814635168e-15 -163.20864063109525 2.666862979023886 164.73036764212696 -123.98833244576755 2.6135653294825913e-15 4.914194340782246e-15 -179.99999999999994 85.82361122952543 179.99999999999994 0.0 0.0 0.0 -2.6391045544399745 9.743755733593252e-15 -5.709060293247959e-16 0.0 0.0 3.975693351829397e-16
57.24694941043854 -15.583486872911454 472.2991287231446 71.66232847974796 -84.11606601696582 68.97930596436031 -2.1840883388348464 1.0736607770575055 -26.874284177240632 -4.79758787266477 1.5717084696095245 24.98178378596213 43.179054870275486 2.5444437451708134e-14 57.969799471366755 1.9878466759146976e-15 6.361109362927033e-15 1.1927080055488184e-15 8.957109380785445 7.85756148744512 29.37727484959499 -17.957949169316997 -4.862336309010112 -58.32350421355656 -136.86034901645615 -9.54166404439055e-15 -50.97551817087192 0.0 0.0 0.0 0.028612631524426384 -3.468990949229512 0.0362265738381015 0.0 0.0 0.0 0.0 0.0 0.0 0.0 0.0 0.0 0.0 0.0 0.0 159.92374946840985 -2.804629741677673 -169.84736913816914 120.38800776848771 -5.7309136135797325e-15 1.0004311400757183e-14 -3.2837998983706124e-15 16.575618835971287 4.783410694592949e-16 1.5902773407317584e-15 0.0 0.0 -163.55789032412954 1.892520371261026 164.73619782003487 -125.37463243816096 2.733174158769309e-15 -8.570716637018846e-15 -5.51743498412062e-15 19.220401132573066 -5.51743498412062e-15 1.7655625192200634e-31 6.361109362927033e-15 -3.1805546814635164e-15 -3.0351706212159 1.585938437453986e-15 -7.534013122329187e-16 0.0 0.0 0.0
57.24413852691651 -15.563801622390748 472.27929725646976 72.35696125240393 -84.07591876919845 69.6773804792456 -1.9970336879391912 0.9621975886921866 -26.89982104442871 -5.10532506896608 1.6770185278438718 24.377098049916544 42.475606168137446 -3.1805546814635168e-15 58.492553341672796 1.5902773407317584e-15 4.4139062980501586e-32 3.1805546814635168e-15 8.96433982531506 7.932915880970352 29.334941017643647 -18.92727912229522 -5.11955517829969 -57.51559811494275 -147.96226724198897 1.5902773407317584e-15 -45.881382237775995 -1.1927080055488188e-15 0.0 0.0 0.022812409261051735 -3.4052926567250967 0.03564830020137886 0.0 0.0 0.0 0.0 0.0 0.0 0.0 0.0 0.0 0.0 0.0 0.0 159.97147504284874 -2.659874194118688 -169.8742326727699 120.65428482663353 -3.3619813591843845e-15 -6.948828692465304e-15 1.4831105569827586e-14 60.075918931290715 6.120128350751898e-15 0.0 0.0 0.0 -163.1438785466982 3.437578316995687 164.7291664871217 -128.8866910137221 -5.05268201688316e-15 4.178887266226305e-15 -2.61152697766976e-15 -28.89840435554531 2.61152697766976e-15 1.5902773407317584e-15 0.0 0.0 -3.1535004642653477 -3.8777929384685935e-15 -9.021816576902822e-16 -3.975693351829396e-16 -1.3793457181406746e-33 3.975693351829396e-16
